<?xml version="1.0" encoding="UTF-8" standalone="no"?><!-- Generator: Gravit.io --><svg xmlns="http://www.w3.org/2000/svg" xmlns:xlink="http://www.w3.org/1999/xlink" style="isolation:isolate" viewBox="0 0 1024 1024" width="1024pt" height="1024pt"><defs><clipPath id="_clipPath_x2nqj09Ras5UyNWjeKJZbsyIxswHnw3W"><rect width="1024" height="1024"/></clipPath></defs><g clip-path="url(#_clipPath_x2nqj09Ras5UyNWjeKJZbsyIxswHnw3W)"><path d=" M 582.508 131.964 C 800.589 206.416 660.125 642.897 873.54 642.897 C 958.687 642.897 957.238 741.11 961.585 780.885 L 512.419 780.885 L 512.419 780.885 L 62.415 780.885 C 66.762 741.11 65.313 642.897 150.46 642.897 C 363.875 642.897 223.411 206.416 441.492 131.964 C 438.468 123.801 436.808 114.975 436.808 105.764 C 436.808 64.265 470.5 30.572 512 30.572 C 553.5 30.572 587.192 64.265 587.192 105.764 C 587.192 114.975 585.532 123.801 582.508 131.964 Z  M 361.616 843.044 L 361.616 843.044 C 361.616 926.043 429.001 993.428 512 993.428 C 594.999 993.428 662.384 926.043 662.384 843.044 L 662.384 843.044 L 662.384 843.044 L 361.616 843.044 L 361.616 843.044 Z " fill-rule="evenodd" fill="rgb(255,255,255)"/></g></svg>