<?xml version="1.0" encoding="UTF-8" standalone="no"?><!-- Generator: Gravit.io --><svg xmlns="http://www.w3.org/2000/svg" xmlns:xlink="http://www.w3.org/1999/xlink" style="isolation:isolate" viewBox="0 0 1024 1024" width="1024pt" height="1024pt"><defs><clipPath id="_clipPath_0i658cqWRturfcpzuJWWgMcSO2RKZEbO"><rect width="1024" height="1024"/></clipPath></defs><g clip-path="url(#_clipPath_0i658cqWRturfcpzuJWWgMcSO2RKZEbO)"><path d=" M 512 993.428 C 566.315 993.428 610.754 948.988 610.754 894.673 L 413.246 894.673 C 413.246 949.214 457.459 993.428 512 993.428 Z  M 808.263 697.164 L 808.263 450.279 C 808.263 298.691 727.285 171.791 586.066 138.215 L 586.066 104.638 C 586.066 63.655 552.983 30.572 512 30.572 C 471.017 30.572 437.934 63.655 437.934 104.638 L 437.934 138.215 C 296.222 171.791 215.737 298.197 215.737 450.279 L 215.737 697.164 L 116.982 795.919 L 116.982 845.296 L 907.018 845.296 L 907.018 795.919 L 808.263 697.164 Z " fill="rgb(255,255,255)"/></g></svg>