<?xml version="1.0" encoding="UTF-8" standalone="no"?><!-- Generator: Gravit.io --><svg xmlns="http://www.w3.org/2000/svg" xmlns:xlink="http://www.w3.org/1999/xlink" style="isolation:isolate" viewBox="0 0 1024 1024" width="1024pt" height="1024pt"><defs><clipPath id="_clipPath_XQN6aGudUSXZMlqXYK89ZIhJFOdOWA1N"><rect width="1024" height="1024"/></clipPath></defs><g clip-path="url(#_clipPath_XQN6aGudUSXZMlqXYK89ZIhJFOdOWA1N)"><path d=" M 0 512 C 0 229.42 229.42 0 512 0 C 794.58 0 1024 229.42 1024 512 C 1024 794.58 794.58 1024 512 1024 C 229.42 1024 0 794.58 0 512 Z  M 81 512 C 80.99 482.81 83.92 453.69 89.77 425.09 C 95.44 397.43 103.84 370.38 114.85 344.37 C 125.7 318.74 139.01 294.23 154.6 271.18 C 170.09 248.26 187.74 226.87 207.31 207.31 C 226.87 187.74 248.26 170.09 271.18 154.6 C 294.23 139.01 318.74 125.7 344.37 114.85 C 370.38 103.84 397.43 95.44 425.11 89.77 C 453.7 83.92 482.81 80.99 512 81 C 541.19 80.99 570.3 83.92 598.89 89.77 C 626.57 95.44 653.62 103.84 679.63 114.85 C 705.26 125.7 729.77 139.01 752.82 154.6 C 775.74 170.09 797.13 187.74 816.69 207.31 C 836.26 226.87 853.91 248.26 869.4 271.18 C 884.99 294.23 898.3 318.74 909.15 344.37 C 920.16 370.38 928.56 397.43 934.23 425.11 C 940.08 453.7 943.01 482.81 943 512 C 943.01 541.19 940.08 570.3 934.23 598.89 C 928.56 626.57 920.16 653.62 909.15 679.63 C 898.3 705.26 884.99 729.77 869.4 752.82 C 853.91 775.74 836.26 797.13 816.69 816.69 C 797.13 836.26 775.74 853.91 752.82 869.4 C 729.77 884.99 705.26 898.3 679.63 909.15 C 653.62 920.16 626.57 928.56 598.89 934.23 C 570.3 940.08 541.19 943.01 512 943 C 482.81 943.01 453.7 940.08 425.11 934.23 C 397.43 928.56 370.38 920.16 344.37 909.15 C 318.74 898.3 294.23 884.99 271.18 869.4 C 248.26 853.91 226.87 836.26 207.31 816.69 C 187.74 797.13 170.09 775.74 154.6 752.82 C 139.01 729.77 125.7 705.26 114.85 679.63 C 103.84 653.62 95.44 626.57 89.77 598.89 C 83.92 570.3 80.99 541.19 81 512 Z " fill-rule="evenodd" fill="rgb(255,255,255)"/><g><polygon points="602.334,602.334,421.666,421.666,776.241,247.759" fill="rgb(255,255,255)"/><path d=" M 425.047 689.287 L 247.759 776.241 L 334.713 598.953 L 421.666 421.666 L 512 512 L 602.334 602.334 L 425.047 689.287 Z  M 406.99 652.48 L 337.38 686.62 L 371.52 617.01 L 433.22 491.21 L 483.01 540.99 L 532.79 590.78 L 406.99 652.48 Z " fill-rule="evenodd" fill="rgb(255,255,255)"/></g></g></svg>