<?xml version="1.0" encoding="UTF-8" standalone="no"?><!-- Generator: Gravit.io --><svg xmlns="http://www.w3.org/2000/svg" xmlns:xlink="http://www.w3.org/1999/xlink" style="isolation:isolate" viewBox="0 0 1024 1024" width="1024pt" height="1024pt"><defs><clipPath id="_clipPath_i1OpjQ1kZIHqzj5dxaF8kKHg1CQtnWrL"><rect width="1024" height="1024"/></clipPath></defs><g clip-path="url(#_clipPath_i1OpjQ1kZIHqzj5dxaF8kKHg1CQtnWrL)"><rect width="1024" height="1024" style="fill:rgb(157,77,77)" fill-opacity="0"/><path d=" M 884.364 232.727 C 884.364 232.727 777.635 149.178 651.636 139.636 L 640.279 162.374 C 754.176 190.278 806.447 230.167 861.091 279.273 C 766.906 231.191 673.978 186.182 512 186.182 C 350.022 186.182 257.094 231.191 162.909 279.273 C 217.553 230.167 279.738 185.809 383.721 162.374 L 372.364 139.636 C 240.175 152.087 139.636 232.727 139.636 232.727 C 139.636 232.727 20.457 405.551 0 744.727 C 120.087 883.27 302.545 884.364 302.545 884.364 L 340.713 833.536 C 275.921 811.008 202.845 770.816 139.636 698.182 C 214.993 755.2 328.727 814.545 512 814.545 C 695.273 814.545 809.007 755.2 884.364 698.182 C 821.178 770.816 748.102 811.008 683.287 833.536 L 721.455 884.364 C 721.455 884.364 903.913 883.27 1024 744.727 C 1003.543 405.551 884.364 232.727 884.364 232.727 Z  M 360.727 651.636 C 315.718 651.636 279.273 609.978 279.273 558.545 C 279.273 507.113 315.718 465.455 360.727 465.455 C 405.737 465.455 442.182 507.113 442.182 558.545 C 442.182 609.978 405.737 651.636 360.727 651.636 Z  M 663.273 651.636 C 618.263 651.636 581.818 609.978 581.818 558.545 C 581.818 507.113 618.263 465.455 663.273 465.455 C 708.282 465.455 744.727 507.113 744.727 558.545 C 744.727 609.978 708.282 651.636 663.273 651.636 Z " fill="rgb(255,255,255)"/></g></svg>