<?xml version="1.0" encoding="UTF-8" standalone="no"?><!-- Generator: Gravit.io --><svg xmlns="http://www.w3.org/2000/svg" xmlns:xlink="http://www.w3.org/1999/xlink" style="isolation:isolate" viewBox="0 0 1024 1024" width="1024pt" height="1024pt"><defs><clipPath id="_clipPath_8H6DPsof9dzmRFVavy7Cj5al5oCRVmIf"><rect width="1024" height="1024"/></clipPath></defs><g clip-path="url(#_clipPath_8H6DPsof9dzmRFVavy7Cj5al5oCRVmIf)"><path d=" M 411.068 271.269 L 606.225 271.269 C 631.568 271.269 652.144 291.844 652.144 317.188 L 652.144 473.862 L 866.823 920.532 C 894.269 977.638 865.113 1024 801.754 1024 L 222.938 1024 C 159.579 1024 129.912 977.396 156.729 919.992 L 365.149 473.862 L 365.149 317.188 C 365.149 291.844 385.724 271.269 411.068 271.269 Z  M 442.201 314.413 L 572.896 314.413 C 589.868 314.413 603.648 328.193 603.648 345.165 L 603.648 474.196 L 697.785 669.274 L 327.3 669.274 L 411.449 474.196 L 411.449 345.165 C 411.449 328.193 425.228 314.413 442.201 314.413 Z  M 499.462 199.749 C 499.462 175.356 519.267 155.552 543.66 155.552 C 568.053 155.552 587.857 175.356 587.857 199.749 C 587.857 224.142 568.053 243.946 543.66 243.946 C 519.267 243.946 499.462 224.142 499.462 199.749 Z  M 401.884 131.444 C 401.884 114.654 415.515 101.022 432.305 101.022 C 449.096 101.022 462.727 114.654 462.727 131.444 C 462.727 148.234 449.096 161.865 432.305 161.865 C 415.515 161.865 401.884 148.234 401.884 131.444 Z  M 499.462 23.534 C 499.462 10.545 510.007 0 522.996 0 C 535.985 0 546.53 10.545 546.53 23.534 C 546.53 36.522 535.985 47.067 522.996 47.067 C 510.007 47.067 499.462 36.522 499.462 23.534 Z " fill-rule="evenodd" fill="rgb(255,255,255)"/></g></svg>