<?xml version="1.0" encoding="UTF-8" standalone="no"?><!-- Generator: Gravit.io --><svg xmlns="http://www.w3.org/2000/svg" xmlns:xlink="http://www.w3.org/1999/xlink" style="isolation:isolate" viewBox="0 0 1024 1024" width="1024pt" height="1024pt"><defs><clipPath id="_clipPath_4xM7WZtHoLWKm9Cnd1JscNVpNZtXBQsO"><rect width="1024" height="1024"/></clipPath></defs><g clip-path="url(#_clipPath_4xM7WZtHoLWKm9Cnd1JscNVpNZtXBQsO)"><rect width="1024" height="1024" style="fill:rgb(157,77,77)" fill-opacity="0"/><path d=" M 511.416 262.13 C 649.195 262.13 760.702 373.637 760.702 511.416 C 760.702 649.195 649.195 760.702 511.416 760.702 C 373.637 760.702 262.13 649.195 262.13 511.416 C 262.13 373.637 373.637 262.13 511.416 262.13 L 511.416 262.13 L 511.416 262.13 Z  M 1024 511.416 L 1024 572.716 C 1024 594.901 1005.902 613.583 983.133 613.583 L 963.284 613.583 C 963.284 613.583 921.25 613.583 907.238 648.611 L 907.238 648.027 C 901.984 663.206 895.562 677.802 889.14 692.397 L 890.308 690.645 C 890.308 690.645 872.794 727.425 901.4 756.032 L 917.747 772.379 C 933.51 788.141 933.51 814.413 917.747 830.176 L 830.759 917.163 C 814.721 932.934 789.001 932.934 772.962 917.163 L 753.697 897.897 C 753.697 897.897 724.506 873.377 701.738 884.47 L 705.824 882.135 C 686.559 892.059 666.125 900.816 644.525 907.822 L 646.276 907.822 C 614.167 920.082 614.167 953.943 614.167 953.943 L 614.167 983.133 C 614.167 1005.318 596.068 1024 573.3 1024 L 450.7 1024 C 428.515 1024 409.834 1005.902 409.834 983.133 L 409.834 953.943 C 409.834 953.943 409.834 920.082 377.724 907.822 L 379.475 907.822 C 358.458 900.816 338.025 892.059 318.176 882.135 L 322.262 884.47 C 299.494 873.961 270.303 897.897 270.303 897.897 L 251.038 917.163 C 234.999 932.934 209.279 932.934 193.241 917.163 L 106.253 830.176 C 90.482 814.137 90.482 788.417 106.253 772.379 L 122.6 756.032 C 151.206 727.425 133.692 690.645 133.692 690.645 L 134.86 692.397 C 127.854 677.802 122.016 663.206 116.762 648.027 L 116.762 649.195 C 102.75 613.583 60.716 614.167 60.716 614.167 L 40.867 614.167 C 18.682 614.167 0 596.068 0 573.3 L 0 450.7 C 0 428.515 18.098 409.834 40.867 409.834 L 60.716 409.834 C 60.716 409.834 102.75 409.834 116.762 374.805 L 116.762 375.973 C 122.016 360.794 128.438 346.198 134.86 331.603 L 133.692 333.355 C 133.692 333.355 151.206 296.575 122.6 267.968 L 106.253 251.621 C 90.482 235.583 90.482 209.863 106.253 193.824 L 193.241 106.837 C 209.003 91.074 235.275 91.074 251.038 106.837 L 270.303 126.103 C 270.303 126.103 299.494 150.623 322.262 139.53 L 318.176 141.865 C 337.441 131.357 357.875 123.184 379.475 116.178 L 377.724 116.178 C 409.834 103.918 409.834 70.057 409.834 70.057 L 409.834 40.867 C 409.834 18.682 427.932 0 450.7 0 L 573.3 0 C 595.485 0 614.167 18.098 614.167 40.867 L 614.167 70.057 C 614.167 70.057 614.167 103.918 646.276 116.178 L 644.525 116.178 C 665.542 123.184 685.975 131.941 705.824 141.865 L 701.738 139.53 C 724.506 150.039 753.697 126.103 753.697 126.103 L 772.962 106.837 C 788.725 91.074 814.997 91.074 830.759 106.837 L 917.747 193.824 C 933.51 209.587 933.51 235.859 917.747 251.621 L 901.4 267.968 C 872.794 296.575 890.308 333.355 890.308 333.355 L 889.14 331.603 C 896.146 346.198 901.984 360.794 907.238 375.973 L 907.238 374.805 C 921.25 410.417 963.284 409.834 963.284 409.834 L 983.133 409.834 C 1005.318 409.834 1024 427.932 1024 450.7 L 1024 511.416 L 1024 511.416 L 1024 511.416 Z " fill-rule="evenodd" fill="rgb(255,255,255)"/></g></svg>