<?xml version="1.0" encoding="UTF-8" standalone="no"?><!-- Generator: Gravit.io --><svg xmlns="http://www.w3.org/2000/svg" xmlns:xlink="http://www.w3.org/1999/xlink" style="isolation:isolate" viewBox="0 0 1024 1024" width="1024pt" height="1024pt"><defs><clipPath id="_clipPath_w8G4mNt4FQZ5O3lzL4N1AlrXe4mWcJgB"><rect width="1024" height="1024"/></clipPath></defs><g clip-path="url(#_clipPath_w8G4mNt4FQZ5O3lzL4N1AlrXe4mWcJgB)"><rect width="1024" height="1024" style="fill:rgb(157,77,77)" fill-opacity="0"/><path d=" M 512 0 C 229.675 0 0 229.675 0 512 C 0 794.325 229.675 1024 512 1024 C 794.325 1024 1024 794.325 1024 512 C 1024 229.675 794.325 0 512 0 Z  M 512 85.333 C 519.68 85.333 531.328 90.027 546.688 107.989 C 562.005 125.995 577.664 155.52 592 194.688 C 598.656 213.035 605.184 233.984 610.688 256 L 413.355 256 C 418.816 233.984 425.301 212.992 432 194.645 C 446.336 155.52 461.995 125.995 477.355 108.032 C 492.629 89.941 504.32 85.333 512 85.333 Z  M 375.979 106.667 C 366.507 124.501 358.315 144.171 350.677 165.333 C 340.651 192.853 332.672 223.488 325.333 256 L 170.667 256 C 222.416 186.575 294.026 134.499 376.021 106.667 L 375.979 106.667 Z  M 648.021 106.667 C 730.001 134.507 801.596 186.581 853.333 256 L 698.667 256 C 691.328 223.488 683.307 192.853 673.323 165.333 C 665.643 144.171 657.536 124.501 648.021 106.667 Z  M 120.021 341.333 L 310.656 341.333 C 305.152 381.867 301.312 424.832 299.989 469.333 L 87.979 469.333 C 91.933 425.264 102.729 382.079 119.979 341.333 L 120.021 341.333 Z  M 397.355 341.333 L 626.645 341.333 C 632.661 381.355 637.013 424.32 638.677 469.333 L 385.28 469.333 C 386.987 424.32 391.253 381.312 397.269 341.333 L 397.355 341.333 Z  M 713.344 341.333 L 903.979 341.333 C 921.173 381.184 931.669 424.32 935.979 469.333 L 724.053 469.333 C 722.736 426.51 719.175 383.784 713.387 341.333 L 713.344 341.333 Z  M 87.979 554.667 L 300.032 554.667 C 301.312 599.168 305.152 642.133 310.699 682.667 L 119.979 682.667 C 102.729 641.921 91.933 598.736 87.979 554.667 Z  M 385.365 554.667 L 638.677 554.667 C 637.052 597.524 633.035 640.257 626.645 682.667 L 397.312 682.667 C 390.951 640.256 386.963 597.522 385.365 554.667 L 385.365 554.667 Z  M 724.011 554.667 L 935.979 554.667 C 932.024 598.736 921.228 641.921 903.979 682.667 L 713.387 682.667 C 718.891 642.133 722.688 599.168 724.053 554.667 L 724.011 554.667 Z  M 170.667 768 L 325.333 768 C 332.672 800.512 340.693 831.147 350.677 858.667 C 358.357 879.829 366.464 899.499 376.021 917.333 C 294.026 889.501 222.416 837.425 170.667 768 Z  M 413.355 768 L 610.645 768 C 605.481 788.756 599.258 809.235 592 829.355 C 577.664 868.48 562.005 898.005 546.645 915.968 C 531.328 934.016 519.68 938.667 512 938.667 C 504.32 938.667 492.672 933.973 477.312 916.011 C 461.995 898.005 446.336 868.48 432 829.312 C 425.344 810.965 418.816 790.016 413.312 768 L 413.355 768 Z  M 698.667 768 L 853.333 768 C 801.584 837.425 729.974 889.501 647.979 917.333 C 657.493 899.499 665.685 879.829 673.323 858.667 C 683.349 831.147 691.328 800.512 698.667 768 Z " fill="rgb(255,255,255)"/></g></svg>