<?xml version="1.0" encoding="UTF-8" standalone="no"?><!-- Generator: Gravit.io --><svg xmlns="http://www.w3.org/2000/svg" xmlns:xlink="http://www.w3.org/1999/xlink" style="isolation:isolate" viewBox="0 0 1024 1024" width="1024pt" height="1024pt"><defs><clipPath id="_clipPath_gQB4028r5HG2Jw6fA0U01f3u0VT1w1Je"><rect width="1024" height="1024"/></clipPath></defs><g clip-path="url(#_clipPath_gQB4028r5HG2Jw6fA0U01f3u0VT1w1Je)"><g><path d=" M 0 347.336 L 43.462 402.957 L 512 166.053 L 512 84.681 L 0 347.336 Z  M 1024 347.336 L 980.538 402.957 L 512 166.053 L 512 84.681 L 1024 347.336 Z " fill-rule="evenodd" fill="rgb(255,255,255)"/><path d=" M 378 939.319 L 228 939.319 C 172.808 939.319 128 894.511 128 839.319 L 128 492.319 C 128 437.128 167.868 371.866 216.975 346.673 L 511 195.832 L 511 195.319 L 511.5 195.576 L 512 195.319 L 512 195.832 L 806.025 346.673 C 855.132 371.866 895 437.128 895 492.319 L 895 839.319 C 895 894.511 850.192 939.319 795 939.319 L 646 939.319 L 646 704.319 C 646 630.362 585.957 570.319 512 570.319 L 512 570.319 C 438.043 570.319 378 630.362 378 704.319 L 378 939.319 Z " fill-rule="evenodd" fill="rgb(255,255,255)"/><path d=" M 835 224.598 L 835 84.681 L 714 84.681 L 714 166.053 L 809.346 212.186 L 835 224.598 Z " fill-rule="evenodd" fill="rgb(255,255,255)"/></g></g></svg>