<?xml version="1.0" encoding="UTF-8" standalone="no"?><!-- Generator: Gravit.io --><svg xmlns="http://www.w3.org/2000/svg" xmlns:xlink="http://www.w3.org/1999/xlink" style="isolation:isolate" viewBox="0 0 1024 1024" width="1024pt" height="1024pt"><defs><clipPath id="_clipPath_Obx8UJ11jfpozZSEMVWx87UXAJSfwofi"><rect width="1024" height="1024"/></clipPath></defs><g clip-path="url(#_clipPath_Obx8UJ11jfpozZSEMVWx87UXAJSfwofi)"><path d=" M 189.474 757.1 L 189.474 856.031 C 189.474 948.736 264.738 1024 357.442 1024 L 751.803 1024 C 844.508 1024 919.772 948.736 919.772 856.031 L 919.772 167.969 C 919.772 75.264 844.508 0 751.803 0 L 357.442 0 L 357.442 0 C 264.738 0 189.474 75.264 189.474 167.969 L 189.474 266.9 L 280.473 266.9 L 280.473 167.97 C 280.473 167.94 280.473 167.92 280.473 167.9 C 280.463 157.65 282.513 147.51 286.493 138.07 C 290.383 128.91 296.003 120.59 303.043 113.57 C 310.073 106.53 318.393 100.91 327.543 97.02 C 336.983 93.04 347.123 90.99 357.373 91 C 357.393 91 357.423 91 357.443 91 L 357.443 91 L 751.803 91 C 751.823 91 751.853 91 751.873 91 C 762.123 90.99 772.263 93.04 781.703 97.02 C 790.853 100.91 799.173 106.53 806.203 113.57 C 813.243 120.59 818.863 128.91 822.753 138.07 C 826.733 147.51 828.783 157.65 828.773 167.9 C 828.773 167.92 828.773 167.94 828.773 167.97 L 828.773 856.03 C 828.773 856.06 828.773 856.08 828.773 856.1 C 828.783 866.35 826.733 876.49 822.753 885.93 C 818.863 895.09 813.243 903.41 806.203 910.43 C 799.173 917.47 790.853 923.09 781.703 926.98 C 772.263 930.96 762.123 933.01 751.873 933 C 751.853 933 751.823 933 751.803 933 L 357.443 933 C 357.423 933 357.393 933 357.373 933 C 347.123 933.01 336.983 930.96 327.543 926.98 C 318.393 923.09 310.073 917.47 303.043 910.43 C 296.003 903.41 290.383 895.09 286.493 885.93 C 282.513 876.49 280.463 866.35 280.473 856.1 C 280.473 856.08 280.473 856.06 280.473 856.03 L 280.473 757.1 L 189.474 757.1 Z  M 256.442 558 L 451.978 733.5 L 323.634 733.5 L 72.228 511.181 L 323.634 290.5 L 451.978 290.5 L 254.991 466 L 582.858 466 L 582.858 558 L 256.442 558 Z " fill-rule="evenodd" fill="rgb(255,255,255)"/></g></svg>