<?xml version="1.0" encoding="UTF-8" standalone="no"?><!-- Generator: Gravit.io --><svg xmlns="http://www.w3.org/2000/svg" xmlns:xlink="http://www.w3.org/1999/xlink" style="isolation:isolate" viewBox="0 0 1024 1024" width="1024pt" height="1024pt"><defs><clipPath id="_clipPath_K44pJKtntZyNkbffnbGp29C0cLlpQZ2A"><rect width="1024" height="1024"/></clipPath></defs><g clip-path="url(#_clipPath_K44pJKtntZyNkbffnbGp29C0cLlpQZ2A)"><path d=" M 645.274 64.836 C 837.889 122.248 978.5 300.833 978.5 512 C 978.5 769.468 769.468 978.5 512 978.5 C 358.518 978.5 222.248 904.219 137.226 789.664 C 179.464 802.24 224.199 809 270.5 809 C 527.968 809 737 599.968 737 342.5 C 737 238.514 702.903 142.429 645.274 64.836 Z " fill="rgb(255,255,255)"/><path d=" M 645.274 64.836 C 837.889 122.248 978.5 300.833 978.5 512 C 978.5 769.468 769.468 978.5 512 978.5 C 358.518 978.5 222.248 904.219 137.226 789.664 C 179.464 802.24 224.199 809 270.5 809 C 527.968 809 737 599.968 737 342.5 C 737 238.514 702.903 142.429 645.274 64.836 Z " fill="rgb(255,255,255)"/></g></svg>