<?xml version="1.0" encoding="UTF-8" standalone="no"?><!-- Generator: Gravit.io --><svg xmlns="http://www.w3.org/2000/svg" xmlns:xlink="http://www.w3.org/1999/xlink" style="isolation:isolate" viewBox="0 0 1024 1024" width="1024pt" height="1024pt"><defs><clipPath id="_clipPath_TcffyoNf5vCgPCdwS37yPMrCd2YMeWKQ"><rect width="1024" height="1024"/></clipPath></defs><g clip-path="url(#_clipPath_TcffyoNf5vCgPCdwS37yPMrCd2YMeWKQ)"><path d=" M 774.41 944.71 L 538.733 836.846 C 523.979 830.093 500.021 830.093 485.267 836.846 L 249.59 944.71 C 234.836 951.463 224.369 943.859 226.232 927.74 L 255.989 670.266 C 257.852 654.147 250.449 631.362 239.467 619.417 L 64.054 428.606 C 53.072 416.661 57.07 404.357 72.976 401.148 L 327.043 349.884 C 342.949 346.675 362.331 332.593 370.299 318.458 L 497.564 92.666 C 505.531 78.531 518.469 78.531 526.436 92.666 L 653.701 318.458 C 661.669 332.593 681.051 346.675 696.957 349.884 L 951.024 401.148 C 966.93 404.357 970.928 416.661 959.946 428.606 L 784.533 619.417 C 773.551 631.362 766.148 654.147 768.011 670.266 L 797.768 927.74 C 799.631 943.859 789.164 951.463 774.41 944.71 Z " fill="rgb(255,255,255)"/></g></svg>