<?xml version="1.0" encoding="UTF-8" standalone="no"?><!-- Generator: Gravit.io --><svg xmlns="http://www.w3.org/2000/svg" xmlns:xlink="http://www.w3.org/1999/xlink" style="isolation:isolate" viewBox="0 0 1024 1024" width="1024pt" height="1024pt"><defs><clipPath id="_clipPath_bjHx3bxBiuonpEPtgB1sllFbNrqthIg9"><rect width="1024" height="1024"/></clipPath></defs><g clip-path="url(#_clipPath_bjHx3bxBiuonpEPtgB1sllFbNrqthIg9)"><path d=" M 0 1024 L 0 977.222 L 0 977.222 L 0 977.222 C 0 789.685 229.42 637.429 512 637.429 C 794.58 637.429 1024 789.685 1024 977.222 L 1024 977.222 L 1024 977.222 L 1024 1024 L 1024 1597.423 L 1024 1024 L 0 1024 Z  M 216.5 295.5 C 216.5 132.409 348.909 0 512 0 C 675.091 0 807.5 132.409 807.5 295.5 C 807.5 458.591 675.091 591 512 591 C 348.909 591 216.5 458.591 216.5 295.5 L 216.5 295.5 Z " fill-rule="evenodd" fill="rgb(255,255,255)"/></g></svg>