<?xml version="1.0" encoding="UTF-8" standalone="no"?><!-- Generator: Gravit.io --><svg xmlns="http://www.w3.org/2000/svg" xmlns:xlink="http://www.w3.org/1999/xlink" style="isolation:isolate" viewBox="0 0 1024 1024" width="1024pt" height="1024pt"><defs><clipPath id="_clipPath_QNWL0Vd4IWrGNJ26MU0haUf7xz0vimWE"><rect width="1024" height="1024"/></clipPath></defs><g clip-path="url(#_clipPath_QNWL0Vd4IWrGNJ26MU0haUf7xz0vimWE)"><path d=" M 58.278 125.608 C 85.185 74.614 138.743 39.822 200.363 39.822 L 823.637 39.822 C 912.242 39.822 984.178 111.758 984.178 200.363 L 984.178 823.637 C 984.178 912.242 912.242 984.178 823.637 984.178 L 200.363 984.178 C 111.758 984.178 39.822 912.242 39.822 823.637 L 39.822 200.363 C 39.822 173.378 46.494 147.939 58.278 125.608 Z  M 200.363 154.738 L 823.637 154.738 C 823.671 154.738 823.694 154.738 823.728 154.738 C 829.77 154.738 835.755 155.932 841.33 158.276 C 846.768 160.597 851.706 163.942 855.882 168.118 C 860.058 172.294 863.403 177.232 865.724 182.67 C 868.068 188.245 869.262 194.23 869.262 200.272 C 869.262 200.306 869.262 200.329 869.262 200.363 L 869.262 823.637 C 869.262 823.671 869.262 823.694 869.262 823.728 C 869.262 829.77 868.068 835.755 865.724 841.33 C 863.403 846.768 860.058 851.706 855.882 855.882 C 851.706 860.058 846.768 863.403 841.33 865.724 C 835.755 868.068 829.77 869.262 823.728 869.262 C 823.694 869.262 823.671 869.262 823.637 869.262 L 200.363 869.262 C 200.329 869.262 200.306 869.262 200.272 869.262 C 194.23 869.262 188.245 868.068 182.67 865.724 C 177.232 863.403 172.294 860.058 168.118 855.882 C 163.942 851.706 160.597 846.768 158.276 841.33 C 155.932 835.755 154.738 829.77 154.738 823.728 C 154.738 823.694 154.738 823.671 154.738 823.637 L 154.738 200.363 C 154.738 200.329 154.738 200.306 154.738 200.272 C 154.738 194.23 155.932 188.245 158.276 182.67 C 160.597 177.232 163.942 172.294 168.118 168.118 C 172.294 163.942 177.232 160.597 182.67 158.276 C 188.245 155.932 194.23 154.738 200.272 154.738 C 200.306 154.738 200.329 154.738 200.363 154.738 Z  M 572.095 451.905 L 572.095 308.75 L 451.905 308.75 L 451.905 451.905 L 308.75 451.905 L 308.75 572.095 L 451.905 572.095 L 451.905 715.25 L 572.095 715.25 L 572.095 572.095 L 715.25 572.095 L 715.25 451.905 L 572.095 451.905 Z " fill-rule="evenodd" fill="rgb(255,255,255)"/></g></svg>