<?xml version="1.0" encoding="UTF-8" standalone="no"?><svg xmlns="http://www.w3.org/2000/svg" xmlns:xlink="http://www.w3.org/1999/xlink" style="isolation:isolate" viewBox="0 0 133.008 40" width="133.008pt" height="40pt"><defs><clipPath id="_clipPath_neXhOlMtAWSRFAVHtMPaHVdgGiCuIigr"><rect width="133.008" height="40"/></clipPath></defs><g clip-path="url(#_clipPath_neXhOlMtAWSRFAVHtMPaHVdgGiCuIigr)"><rect width="133.008" height="40" style="fill:rgb(157,77,77)" fill-opacity="0"/><g><g><path d=" M 62.371 12.491 C 60.774 11.354 58.822 10.686 56.714 10.686 C 51.321 10.686 46.943 15.064 46.943 20.457 L 46.943 20.457 C 46.943 25.85 51.321 30.229 56.714 30.229 C 58.822 30.229 60.774 29.56 62.371 28.423 L 62.371 29.971 L 66.486 29.971 L 66.486 20.457 L 66.486 10.943 L 62.371 10.943 L 62.371 12.491 Z  M 51.057 20.457 C 51.057 17.335 53.592 14.8 56.714 14.8 C 59.837 14.8 62.371 17.335 62.371 20.457 L 62.371 20.457 C 62.371 23.579 59.837 26.114 56.714 26.114 C 53.592 26.114 51.057 23.579 51.057 20.457 L 51.057 20.457 Z " fill-rule="evenodd" fill="rgb(157,77,77)"/><path d=" M 108.633 20.59 L 108.656 20.591 C 108.657 20.546 108.657 20.502 108.657 20.457 C 108.657 15.064 104.279 10.686 98.886 10.686 C 93.493 10.686 89.114 15.064 89.114 20.457 C 89.114 25.85 93.493 30.229 98.886 30.229 C 102.394 30.229 105.473 28.375 107.197 25.595 L 103.697 23.432 C 102.7 25.041 100.917 26.114 98.886 26.114 C 96.489 26.114 94.438 24.621 93.615 22.514 L 106.455 22.514 C 107.67 22.514 108.657 21.785 108.657 20.887 L 108.657 20.887 C 108.657 20.787 108.649 20.688 108.633 20.59 Z  M 104.157 18.4 C 103.333 16.294 101.282 14.8 98.886 14.8 C 96.489 14.8 94.438 16.294 93.615 18.4 L 104.157 18.4 Z " fill-rule="evenodd" fill="rgb(157,77,77)"/><path d=" M 113.8 20.312 L 113.802 20.312 C 113.879 17.257 116.383 14.8 119.457 14.8 C 119.483 14.8 119.509 14.8 119.535 14.801 L 119.592 10.687 C 119.547 10.686 119.502 10.686 119.457 10.686 C 117.35 10.686 115.397 11.354 113.8 12.491 L 113.8 11.2 L 109.686 11.2 L 109.686 29.714 L 113.8 29.714 L 113.8 20.312 Z " fill-rule="evenodd" fill="rgb(157,77,77)"/><path d=" M 113.8 20.312 L 113.802 20.312 C 113.879 17.257 116.383 14.8 119.457 14.8 C 119.483 14.8 119.509 14.8 119.535 14.801 L 119.592 10.687 C 119.547 10.686 119.502 10.686 119.457 10.686 C 117.35 10.686 115.397 11.354 113.8 12.491 L 113.8 11.2 L 109.686 11.2 L 109.686 29.714 L 113.8 29.714 L 113.8 20.312 Z " fill-rule="evenodd" fill="rgb(157,77,77)"/><path d=" M 72.657 12.491 C 74.254 11.354 76.207 10.686 78.314 10.686 C 83.707 10.686 88.086 15.064 88.086 20.457 L 88.086 20.457 C 88.086 25.85 83.707 30.229 78.314 30.229 C 76.207 30.229 74.254 29.56 72.657 28.423 L 72.657 40 L 68.543 40 L 68.543 20.457 L 68.543 10.943 L 72.657 10.943 L 72.657 12.491 Z  M 83.971 20.457 C 83.971 17.335 81.437 14.8 78.314 14.8 C 75.192 14.8 72.657 17.335 72.657 20.457 L 72.657 20.457 C 72.657 23.579 75.192 26.114 78.314 26.114 C 81.437 26.114 83.971 23.579 83.971 20.457 L 83.971 20.457 Z " fill-rule="evenodd" fill="rgb(157,77,77)"/><path d=" M 120.865 6.571 C 120.865 7.991 122.017 9.143 123.436 9.143 C 124.855 9.143 126.008 7.991 126.008 6.571 C 126.008 5.152 124.855 4 123.436 4 C 122.017 4 120.865 5.152 120.865 6.571 Z  M 125.75 10.743 L 121.122 10.743 L 121.122 29.257 L 125.75 29.257 L 125.75 10.743 Z " fill-rule="evenodd" fill="rgb(157,77,77)"/><path d=" M 127.865 6.571 C 127.865 7.991 129.017 9.143 130.436 9.143 C 131.855 9.143 133.008 7.991 133.008 6.571 C 133.008 5.152 131.855 4 130.436 4 C 129.017 4 127.865 5.152 127.865 6.571 Z  M 132.75 10.743 L 128.122 10.743 L 128.122 29.257 L 132.75 29.257 L 132.75 10.743 Z " fill-rule="evenodd" fill="rgb(157,77,77)"/></g><g><circle vector-effect="non-scaling-stroke" cx="20" cy="20" r="20" fill="rgb(157,77,77)"/><g><path d=" M 13.561 13.037 C 14.92 9.487 18.364 6.979 22.389 6.979 C 27.632 6.979 31.889 11.235 31.889 16.479 C 31.889 19.849 30.13 22.812 27.466 24.477 C 27.501 24.164 27.515 23.844 27.515 23.521 C 27.515 22.178 27.272 20.891 26.828 19.701 C 27.499 18.802 27.889 17.685 27.889 16.479 C 27.889 13.443 25.424 10.979 22.389 10.979 C 20.798 10.979 19.364 11.655 18.368 12.746 C 17.792 12.651 17.199 12.602 16.596 12.602 C 15.542 12.602 14.523 12.752 13.561 13.037 Z " fill-rule="evenodd" fill="rgb(255,255,255)"/><path d=" M 7.096 23.521 C 7.096 18.278 11.353 14.021 16.596 14.021 C 21.839 14.021 26.096 18.278 26.096 23.521 C 26.096 28.765 21.839 33.021 16.596 33.021 C 11.353 33.021 7.096 28.765 7.096 23.521 Z  M 11.096 23.521 C 11.096 20.486 13.56 18.021 16.596 18.021 C 19.631 18.021 22.096 20.486 22.096 23.521 C 22.096 26.557 19.631 29.021 16.596 29.021 C 13.56 29.021 11.096 26.557 11.096 23.521 Z " fill-rule="evenodd" fill="rgb(255,255,255)"/></g></g></g></g></svg>