<?xml version="1.0" encoding="UTF-8" standalone="no"?><!-- Generator: Gravit.io --><svg xmlns="http://www.w3.org/2000/svg" xmlns:xlink="http://www.w3.org/1999/xlink" style="isolation:isolate" viewBox="0 0 168 40" width="168pt" height="40pt"><defs><clipPath id="_clipPath_c0vbC9cBrG5A16ApaJNO3umm0axIdGfO"><rect width="168" height="40"/></clipPath></defs><g clip-path="url(#_clipPath_c0vbC9cBrG5A16ApaJNO3umm0axIdGfO)"><g><path d=" M 92.371 12.491 C 90.774 11.354 88.822 10.686 86.714 10.686 C 81.321 10.686 76.943 15.064 76.943 20.457 L 76.943 20.457 C 76.943 25.85 81.321 30.229 86.714 30.229 C 88.822 30.229 90.774 29.56 92.371 28.423 L 92.371 29.971 L 96.486 29.971 L 96.486 20.457 L 96.486 10.943 L 92.371 10.943 L 92.371 12.491 Z  M 81.057 20.457 C 81.057 17.335 83.592 14.8 86.714 14.8 C 89.837 14.8 92.371 17.335 92.371 20.457 L 92.371 20.457 C 92.371 23.579 89.837 26.114 86.714 26.114 C 83.592 26.114 81.057 23.579 81.057 20.457 L 81.057 20.457 Z " fill-rule="evenodd" fill="rgb(157,77,77)"/><path d=" M 138.633 20.59 L 138.656 20.591 C 138.657 20.546 138.657 20.502 138.657 20.457 C 138.657 15.064 134.279 10.686 128.886 10.686 C 123.493 10.686 119.114 15.064 119.114 20.457 C 119.114 25.85 123.493 30.229 128.886 30.229 C 132.394 30.229 135.473 28.375 137.197 25.595 L 133.697 23.432 C 132.7 25.041 130.917 26.114 128.886 26.114 C 126.489 26.114 124.438 24.621 123.615 22.514 L 136.455 22.514 C 137.67 22.514 138.657 21.785 138.657 20.887 L 138.657 20.887 C 138.657 20.787 138.649 20.688 138.633 20.59 Z  M 134.157 18.4 C 133.333 16.294 131.282 14.8 128.886 14.8 C 126.489 14.8 124.438 16.294 123.615 18.4 L 134.157 18.4 Z " fill-rule="evenodd" fill="rgb(157,77,77)"/><path d=" M 143.8 20.312 L 143.802 20.312 C 143.879 17.257 146.383 14.8 149.457 14.8 C 149.483 14.8 149.509 14.8 149.535 14.801 L 149.592 10.687 C 149.547 10.686 149.502 10.686 149.457 10.686 C 147.35 10.686 145.397 11.354 143.8 12.491 L 143.8 11.2 L 139.686 11.2 L 139.686 29.714 L 143.8 29.714 L 143.8 20.312 Z " fill-rule="evenodd" fill="rgb(157,77,77)"/><path d=" M 143.8 20.312 L 143.802 20.312 C 143.879 17.257 146.383 14.8 149.457 14.8 C 149.483 14.8 149.509 14.8 149.535 14.801 L 149.592 10.687 C 149.547 10.686 149.502 10.686 149.457 10.686 C 147.35 10.686 145.397 11.354 143.8 12.491 L 143.8 11.2 L 139.686 11.2 L 139.686 29.714 L 143.8 29.714 L 143.8 20.312 Z " fill-rule="evenodd" fill="rgb(157,77,77)"/><path d=" M 102.657 12.491 C 104.254 11.354 106.207 10.686 108.314 10.686 C 113.707 10.686 118.086 15.064 118.086 20.457 L 118.086 20.457 C 118.086 25.85 113.707 30.229 108.314 30.229 C 106.207 30.229 104.254 29.56 102.657 28.423 L 102.657 40 L 98.543 40 L 98.543 20.457 L 98.543 10.943 L 102.657 10.943 L 102.657 12.491 Z  M 113.971 20.457 C 113.971 17.335 111.437 14.8 108.314 14.8 C 105.192 14.8 102.657 17.335 102.657 20.457 L 102.657 20.457 C 102.657 23.579 105.192 26.114 108.314 26.114 C 111.437 26.114 113.971 23.579 113.971 20.457 L 113.971 20.457 Z " fill-rule="evenodd" fill="rgb(157,77,77)"/><path d=" M 150.865 6.571 C 150.865 7.991 152.017 9.143 153.436 9.143 C 154.855 9.143 156.008 7.991 156.008 6.571 C 156.008 5.152 154.855 4 153.436 4 C 152.017 4 150.865 5.152 150.865 6.571 Z  M 155.75 10.743 L 151.122 10.743 L 151.122 29.257 L 155.75 29.257 L 155.75 10.743 Z " fill-rule="evenodd" fill="rgb(157,77,77)"/><path d=" M 157.865 6.571 C 157.865 7.991 159.017 9.143 160.436 9.143 C 161.855 9.143 163.008 7.991 163.008 6.571 C 163.008 5.152 161.855 4 160.436 4 C 159.017 4 157.865 5.152 157.865 6.571 Z  M 162.75 10.743 L 158.122 10.743 L 158.122 29.257 L 162.75 29.257 L 162.75 10.743 Z " fill-rule="evenodd" fill="rgb(157,77,77)"/></g><g><circle vector-effect="non-scaling-stroke" cx="50" cy="19.999999999999996" r="20" fill="rgb(157,77,77)"/><g><path d=" M 43.561 13.037 C 44.92 9.487 48.364 6.979 52.389 6.979 C 57.632 6.979 61.889 11.235 61.889 16.479 C 61.889 19.849 60.13 22.812 57.466 24.477 C 57.501 24.164 57.515 23.844 57.515 23.521 C 57.515 22.178 57.272 20.891 56.828 19.701 C 57.499 18.802 57.889 17.685 57.889 16.479 C 57.889 13.443 55.424 10.979 52.389 10.979 C 50.798 10.979 49.364 11.655 48.368 12.746 C 47.792 12.651 47.199 12.602 46.596 12.602 C 45.542 12.602 44.523 12.752 43.561 13.037 Z " fill-rule="evenodd" fill="rgb(255,255,255)"/><path d=" M 37.096 23.521 C 37.096 18.278 41.353 14.021 46.596 14.021 C 51.839 14.021 56.096 18.278 56.096 23.521 C 56.096 28.765 51.839 33.021 46.596 33.021 C 41.353 33.021 37.096 28.765 37.096 23.521 Z  M 41.096 23.521 C 41.096 20.486 43.56 18.021 46.596 18.021 C 49.631 18.021 52.096 20.486 52.096 23.521 C 52.096 26.557 49.631 29.021 46.596 29.021 C 43.56 29.021 41.096 26.557 41.096 23.521 Z " fill-rule="evenodd" fill="rgb(255,255,255)"/></g></g></g></svg>