<?xml version="1.0" encoding="UTF-8" standalone="no"?><!-- Generator: Gravit.io --><svg xmlns="http://www.w3.org/2000/svg" xmlns:xlink="http://www.w3.org/1999/xlink" style="isolation:isolate" viewBox="0 0 168 40" width="168pt" height="40pt"><defs><clipPath id="_clipPath_TyKOG60AMFZJisBSVAuFauaFLVRFTKCT"><rect width="168" height="40"/></clipPath></defs><g clip-path="url(#_clipPath_TyKOG60AMFZJisBSVAuFauaFLVRFTKCT)"><path d=" M 39.692 16.49 C 38.031 7.123 29.841 0 20 0 C 8.962 0 0 8.962 0 20 C 0 31.038 8.962 40 20 40 C 26.382 40 32.071 37.004 35.726 32.336 C 33.677 31.787 32.392 30.33 32.392 27.34 L 32.392 20.486 L 30.28 20.486 L 30.28 16.49 L 32.392 16.49 L 32.392 11.747 L 37.264 11 L 37.264 16.49 L 39.692 16.49 L 39.692 16.49 Z  M 39.994 20.486 C 39.928 23.255 39.298 25.886 38.206 28.264 C 37.562 28.021 37.264 27.463 37.264 26.56 L 37.264 20.486 L 39.994 20.486 L 39.994 20.486 Z  M 29.5 30.95 L 30.63 29.96 L 32.6 32.23 L 31.47 33.21 C 28.29 35.98 24.21 37.5 20 37.5 C 15.36 37.5 10.9 35.65 7.62 32.37 C 4.34 29.09 2.5 24.64 2.5 20 C 2.5 15.36 4.34 10.91 7.62 7.63 C 10.9 4.34 15.36 2.5 20 2.5 C 24.56 2.5 28.94 4.28 32.21 7.47 L 33.28 8.52 L 31.19 10.66 L 30.11 9.62 C 27.41 6.98 23.78 5.5 20 5.5 C 16.15 5.5 12.46 7.03 9.74 9.75 C 7.03 12.47 5.5 16.16 5.5 20 C 5.5 23.84 7.03 27.53 9.74 30.25 C 12.46 32.97 16.15 34.5 20 34.5 C 23.49 34.5 26.86 33.24 29.5 30.95 Z " fill-rule="evenodd" fill="rgb(14,191,255)"/><path d=" M 115.456 13.331 L 114.883 9.871 L 101.855 9.871 L 101.855 13.331 L 106.412 13.331 L 106.412 26.335 L 110.517 26.335 L 110.517 13.331 L 115.456 13.331 Z  M 129.415 14.643 L 126.075 14.643 L 124.524 21.444 L 122.853 14.643 L 119.608 14.643 L 117.962 21.468 L 116.363 14.476 L 112.64 14.929 L 115.838 26.335 L 119.298 26.335 L 120.992 19.654 L 122.71 26.335 L 126.146 26.335 L 129.415 14.643 Z  M 133.639 11.183 C 133.639 9.99 132.756 9.226 131.587 9.226 C 130.441 9.226 129.535 9.99 129.535 11.183 C 129.535 12.352 130.441 13.116 131.587 13.116 C 132.756 13.116 133.639 12.352 133.639 11.183 Z  M 133.4 26.335 L 133.4 14.643 L 129.773 14.643 L 129.773 26.335 L 133.4 26.335 Z  M 141.728 26.264 L 141.275 23.305 C 141.012 23.376 140.726 23.424 140.416 23.424 C 139.437 23.424 138.984 22.995 138.984 22.04 L 138.984 17.578 L 141.656 17.578 L 141.203 14.643 L 138.984 14.643 L 138.984 10.61 L 135.405 11.159 L 135.405 14.643 L 133.854 14.643 L 133.854 17.578 L 135.405 17.578 L 135.405 22.613 C 135.405 25.596 137.147 26.502 139.652 26.502 C 140.607 26.502 141.155 26.431 141.728 26.264 Z  M 149.197 26.264 L 148.743 23.305 C 148.481 23.376 148.195 23.424 147.884 23.424 C 146.906 23.424 146.453 22.995 146.453 22.04 L 146.453 17.578 L 149.125 17.578 L 148.672 14.643 L 146.453 14.643 L 146.453 10.61 L 142.873 11.159 L 142.873 14.643 L 141.322 14.643 L 141.322 17.578 L 142.873 17.578 L 142.873 22.613 C 142.873 25.596 144.615 26.502 147.121 26.502 C 148.075 26.502 148.624 26.431 149.197 26.264 Z  M 159.72 20.465 C 159.72 17.077 158.121 14.404 154.542 14.404 C 151.368 14.404 149.03 16.719 149.03 20.537 C 149.03 24.713 151.535 26.574 155.043 26.574 C 156.88 26.574 158.431 26.073 159.696 25.262 L 159.338 22.732 C 158.05 23.472 156.785 23.949 155.496 23.949 C 153.921 23.949 152.824 23.233 152.633 21.396 L 159.648 21.396 C 159.696 21.205 159.72 20.823 159.72 20.465 Z  M 156.284 19.415 L 152.609 19.415 C 152.728 17.626 153.444 16.743 154.446 16.743 C 155.544 16.743 156.165 17.65 156.284 19.415 Z  M 168 18.079 L 167.403 14.404 C 165.685 14.524 164.707 15.621 163.991 16.958 L 163.609 14.643 L 160.46 14.643 L 160.46 26.335 L 164.063 26.335 L 164.063 19.845 C 164.946 18.89 166.258 18.198 168 18.079 Z  M 63.485 18.079 C 63.485 12.997 60.407 9.56 55.634 9.56 C 50.862 9.56 47.76 13.02 47.76 18.127 C 47.76 23.209 50.862 26.646 55.587 26.646 C 60.383 26.646 63.485 23.162 63.485 18.079 Z  M 59.381 18.103 C 59.381 21.372 57.997 23.448 55.611 23.448 C 53.248 23.448 51.84 21.372 51.84 18.103 C 51.84 14.834 53.224 12.758 55.611 12.758 C 57.997 12.758 59.381 14.834 59.381 18.103 Z  M 75.416 20.179 C 75.416 16.218 73.626 14.404 71.216 14.404 C 69.713 14.404 68.663 15.287 67.852 16.194 L 67.613 14.643 L 64.439 14.643 L 64.439 30.774 L 68.043 30.225 L 68.043 26.049 C 68.711 26.264 69.45 26.455 70.5 26.455 C 73.077 26.455 75.416 24.617 75.416 20.179 Z  M 71.813 20.418 C 71.813 22.684 70.906 23.615 69.689 23.615 C 68.949 23.615 68.544 23.496 68.043 23.257 L 68.043 18.819 C 68.639 18.103 69.26 17.626 70.047 17.626 C 71.073 17.626 71.813 18.461 71.813 20.418 Z  M 86.345 20.465 C 86.345 17.077 84.746 14.404 81.167 14.404 C 77.993 14.404 75.655 16.719 75.655 20.537 C 75.655 24.713 78.16 26.574 81.668 26.574 C 83.505 26.574 85.056 26.073 86.321 25.262 L 85.963 22.732 C 84.674 23.472 83.41 23.949 82.121 23.949 C 80.546 23.949 79.449 23.233 79.258 21.396 L 86.273 21.396 C 86.321 21.205 86.345 20.823 86.345 20.465 Z  M 82.909 19.415 L 79.234 19.415 C 79.353 17.626 80.069 16.743 81.071 16.743 C 82.169 16.743 82.789 17.65 82.909 19.415 Z  M 97.488 26.335 L 97.488 18.031 C 97.488 15.765 96.343 14.404 94.171 14.404 C 92.692 14.404 91.57 15.216 90.52 16.242 L 90.258 14.643 L 87.084 14.643 L 87.084 26.335 L 90.688 26.335 L 90.688 18.652 C 91.332 18.008 91.976 17.602 92.668 17.602 C 93.527 17.602 93.861 18.175 93.861 19.01 L 93.861 26.335 L 97.488 26.335 Z " fill="rgb(14,191,255)"/><path d=" M 119.625 30.723 L 119.409 29.422 L 114.511 29.422 L 114.511 30.723 L 116.224 30.723 L 116.224 35.613 L 117.767 35.613 L 117.767 30.723 L 119.625 30.723 Z  M 121.419 29.915 C 121.419 29.467 121.087 29.179 120.648 29.179 C 120.217 29.179 119.876 29.467 119.876 29.915 C 119.876 30.355 120.217 30.642 120.648 30.642 C 121.087 30.642 121.419 30.355 121.419 29.915 Z  M 121.33 35.613 L 121.33 31.216 L 119.966 31.216 L 119.966 35.613 L 121.33 35.613 Z  M 124.909 35.586 L 124.739 34.473 C 124.64 34.5 124.533 34.518 124.416 34.518 C 124.048 34.518 123.878 34.356 123.878 33.998 L 123.878 32.32 L 124.883 32.32 L 124.712 31.216 L 123.878 31.216 L 123.878 29.7 L 122.532 29.906 L 122.532 31.216 L 121.949 31.216 L 121.949 32.32 L 122.532 32.32 L 122.532 34.213 C 122.532 35.334 123.187 35.675 124.129 35.675 C 124.488 35.675 124.694 35.648 124.909 35.586 Z  M 126.937 35.613 L 126.937 29.135 L 125.573 29.35 L 125.573 35.613 L 126.937 35.613 Z  M 131.702 33.405 C 131.702 32.131 131.1 31.126 129.755 31.126 C 128.561 31.126 127.682 31.997 127.682 33.432 C 127.682 35.002 128.624 35.702 129.943 35.702 C 130.634 35.702 131.217 35.514 131.693 35.209 L 131.558 34.258 C 131.073 34.536 130.598 34.715 130.113 34.715 C 129.521 34.715 129.109 34.446 129.037 33.755 L 131.675 33.755 C 131.693 33.684 131.702 33.54 131.702 33.405 Z  M 130.409 33.011 L 129.028 33.011 C 129.073 32.338 129.342 32.006 129.719 32.006 C 130.131 32.006 130.365 32.347 130.409 33.011 Z  M 135.21 32.759 C 135.21 31.126 134.402 30.104 133.173 29.135 L 132.132 29.377 C 133.236 30.534 133.711 31.414 133.711 32.777 C 133.711 34.051 133.254 34.841 132.41 35.577 L 132.545 36.501 C 134.25 35.702 135.21 34.527 135.21 32.759 Z  M 79.294 36.214 C 78.191 35.065 77.724 34.186 77.724 32.813 C 77.724 31.548 78.164 30.75 79.016 30.014 L 78.881 29.099 C 77.177 29.888 76.208 31.073 76.208 32.831 C 76.208 34.473 77.024 35.496 78.253 36.456 L 79.294 36.214 Z  M 88.186 29.422 L 86.669 29.422 L 85.781 33.298 L 84.776 29.422 L 83.233 29.422 L 82.228 33.298 L 81.295 29.359 L 79.635 29.619 L 81.268 35.613 L 82.811 35.613 L 83.879 31.62 L 84.947 35.613 L 86.499 35.613 L 88.186 29.422 Z  M 92.286 33.414 C 92.286 32.006 91.389 31.126 90.169 31.126 C 88.957 31.126 88.06 32.015 88.06 33.423 C 88.06 34.832 88.948 35.702 90.16 35.702 C 91.38 35.702 92.286 34.823 92.286 33.414 Z  M 90.976 33.423 C 90.976 34.132 90.689 34.608 90.169 34.608 C 89.657 34.608 89.37 34.123 89.37 33.414 C 89.37 32.697 89.648 32.239 90.169 32.239 C 90.689 32.239 90.976 32.715 90.976 33.423 Z  M 95.839 32.508 L 95.615 31.126 C 94.969 31.171 94.601 31.584 94.332 32.086 L 94.188 31.216 L 93.004 31.216 L 93.004 35.613 L 94.359 35.613 L 94.359 33.172 C 94.691 32.813 95.184 32.553 95.839 32.508 Z  M 100.424 35.478 L 98.988 33.217 L 100.37 31.216 L 98.917 31.216 L 97.741 33.02 L 97.741 29.135 L 96.386 29.35 L 96.386 35.613 L 97.741 35.613 L 97.741 33.567 L 99.015 35.675 L 100.424 35.478 Z  M 102.398 29.915 C 102.398 29.467 102.066 29.179 101.626 29.179 C 101.196 29.179 100.855 29.467 100.855 29.915 C 100.855 30.355 101.196 30.642 101.626 30.642 C 102.066 30.642 102.398 30.355 102.398 29.915 Z  M 102.308 35.613 L 102.308 31.216 L 100.944 31.216 L 100.944 35.613 L 102.308 35.613 Z  M 107.18 35.613 L 107.18 32.49 C 107.18 31.638 106.749 31.126 105.933 31.126 C 105.377 31.126 104.955 31.431 104.56 31.817 L 104.462 31.216 L 103.268 31.216 L 103.268 35.613 L 104.623 35.613 L 104.623 32.723 C 104.865 32.481 105.108 32.329 105.368 32.329 C 105.691 32.329 105.816 32.544 105.816 32.858 L 105.816 35.613 L 107.18 35.613 Z  M 109.011 35.532 C 109.226 35.568 109.378 35.595 109.701 35.622 L 110.356 35.675 C 110.832 35.729 110.993 35.819 110.993 36.025 C 110.993 36.312 110.59 36.546 109.881 36.546 C 109.091 36.546 108.75 36.33 108.75 36.025 C 108.75 35.873 108.831 35.711 109.011 35.532 Z  M 110.446 32.661 C 110.446 33.082 110.213 33.387 109.8 33.387 C 109.405 33.387 109.172 33.1 109.172 32.688 C 109.172 32.266 109.405 31.943 109.8 31.943 C 110.204 31.943 110.446 32.248 110.446 32.661 Z  M 111.137 31.566 C 110.805 31.306 110.347 31.144 109.791 31.144 C 108.732 31.144 107.943 31.745 107.943 32.706 C 107.943 33.271 108.239 33.728 108.786 33.98 C 108.356 34.222 108.131 34.491 108.131 34.769 C 108.131 34.94 108.221 35.119 108.373 35.254 C 107.889 35.523 107.656 35.81 107.656 36.196 C 107.656 36.869 108.535 37.246 109.773 37.246 C 111.182 37.246 112.232 36.626 112.232 35.666 C 112.232 35.002 111.702 34.724 110.823 34.635 L 110.015 34.581 C 109.423 34.509 109.316 34.473 109.316 34.347 C 109.316 34.285 109.351 34.222 109.423 34.15 C 109.558 34.168 109.692 34.177 109.836 34.177 C 110.832 34.177 111.657 33.612 111.657 32.661 C 111.657 32.499 111.63 32.347 111.577 32.194 C 111.586 32.194 112.348 32.176 112.348 32.176 L 112.178 31.171 L 111.137 31.566 Z " fill="rgb(255,255,255)"/></g></svg>