<?xml version="1.0" encoding="UTF-8" standalone="no"?><!-- Generator: Gravit.io --><svg xmlns="http://www.w3.org/2000/svg" xmlns:xlink="http://www.w3.org/1999/xlink" style="isolation:isolate" viewBox="0 0 15 15" width="15pt" height="15pt"><defs><clipPath id="_clipPath_YxygzawTQndzAoIbQcSEoeDSKIco8wRh"><rect width="15" height="15"/></clipPath></defs><g clip-path="url(#_clipPath_YxygzawTQndzAoIbQcSEoeDSKIco8wRh)"><path d=" M 3 2 C 2.448 2 2 2.448 2 3 L 2 12 C 2 12.552 2.448 13 3 13 L 12 13 C 12.552 13 13 12.552 13 12 L 13 3 C 13 2.448 12.552 2 12 2 L 3 2 Z  M 3.75 5 L 11.25 5 L 11.25 5.132 C 11.09 5.263 8.216 7.613 7.964 7.827 C 7.834 7.938 7.67 7.999 7.5 8 C 7.33 7.999 7.166 7.938 7.036 7.827 C 6.783 7.612 3.91 5.262 3.75 5.132 L 3.75 5 Z  M 3.75 5.778 C 4.172 6.124 5.031 6.828 5.853 7.503 L 3.75 9.223 L 3.75 5.778 Z  M 11.25 5.778 L 11.25 9.223 L 9.148 7.503 L 11.25 5.778 L 11.25 5.778 Z  M 6.246 7.825 C 6.372 7.929 6.686 8.185 6.714 8.208 C 6.933 8.395 7.212 8.499 7.5 8.5 C 7.685 8.5 7.998 8.452 8.286 8.208 C 8.315 8.185 8.628 7.93 8.754 7.825 L 11.25 9.868 L 11.25 10 L 3.75 10 L 3.75 9.868 L 6.246 7.825 Z " fill="rgb(255,255,255)"/></g></svg>